# xmcd
#
# Track frame offsets: 
#        150
#        33618
#        65105
#        98246
#        120213
#        143771
#        184346
#        207461
#        226589
#        256063
#
# Disc length: 3915 seconds
#
# Revision: 0
# Processed by: cddbd v1.5.2PL0 Copyright (c) Steve Scherf et al.
# Submitted via: ExactAudioCopy v0.99pb5
#
DISCID=880f490a
DTITLE=Wes Race - Cryptic Whalin'!
DYEAR=2008
DGENRE=Blues
TTITLE0=Shot Time
TTITLE1=Ludella Small Blues
TTITLE2=Ragmop Reality
TTITLE3=Bright Boy's Boogie
TTITLE4=Madam Fu-Fu's Dream Book
TTITLE5=T-99
TTITLE6=Cryptic Cocktail Mix
TTITLE7=Dreaming at the Dig Palace
TTITLE8=Voodoo-ola
TTITLE9=Baptized In Bop
EXTD=
EXTT0=
EXTT1=
EXTT2=
EXTT3=
EXTT4=
EXTT5=
EXTT6=
EXTT7=
EXTT8=
EXTT9=
PLAYORDER=
